<svg id="Capa_1" enable-background="new 0 0 512 512" height="128" viewBox="0 0 512 512" width="512" xmlns="http://www.w3.org/2000/svg"><g><path d="m38.301 236.939c-23.267-9.032-38.301-30.99-38.301-55.939 0-33.084 26.916-60 60-60 27.386 0 51.279 18.503 58.104 44.997l-29.051 7.484c-3.409-13.236-15.357-22.481-29.053-22.481-16.542 0-30 13.458-30 30 0 12.475 7.52 23.454 19.156 27.972z" fill="#df6426"/><path d="m180 496c-99.252 0-180-80.748-180-180s80.748-180 180-180l124.271 5 15 30h60.729v-30h127v75.855l-157.044 51.695c3.351 13.844 5.044 33.066 5.044 47.45 0 99.252-105.139 180-175 180z" fill="#f4d844"/><path d="m360 316c0-14.384-1.693-28.606-5.044-42.45l157.044-51.695v-85.855h-137v30h-50.729l-15-30h-129.271v360c99.252 0 180-80.748 180-180z" fill="#ecbd2c"/><g fill="#7dc1fc"><path d="m255 28.111h30v80.777h-30z" transform="matrix(.929 -.371 .371 .929 -6.129 105.175)"/><path d="m330 16h30v90h-30z"/><path d="m379.611 53.5h80.777v30h-80.777z" transform="matrix(.371 -.929 .929 .371 200.402 433.012)"/></g><path d="m180 421c-57.897 0-105-47.103-105-105s47.103-105 105-105c42.527 0 100 47.103 100 105s-55 105-100 105z" fill="#e58f22"/><path d="m285 316c0-57.897-47.102-105-105-105v210c57.898 0 105-47.103 105-105z" fill="#df6426"/><path d="m180 361c-24.814 0-45-20.186-45-45s20.186-45 45-45c15.527 0 40 20.186 40 45s-23.281 45-40 45z" fill="#df6426"/><path d="m225 316c0-24.814-20.186-45-45-45v90c24.814 0 45-20.186 45-45z" fill="#ce3b0e"/></g></svg>